<?xml version="1.0" encoding="UTF-8" standalone="no"?><!DOCTYPE svg PUBLIC "-//W3C//DTD SVG 1.1//EN" "http://www.w3.org/Graphics/SVG/1.1/DTD/svg11.dtd"><svg width="100%" height="100%" viewBox="0 0 192 192" version="1.1" xmlns="http://www.w3.org/2000/svg" xmlns:xlink="http://www.w3.org/1999/xlink" xml:space="preserve" xmlns:serif="http://www.serif.com/" style="fill-rule:evenodd;clip-rule:evenodd;stroke-linejoin:round;stroke-miterlimit:2;"><rect id="アートボード1" x="0" y="0" width="192" height="192" style="fill:#fff;"/><clipPath id="_clip1"><rect id="アートボード11" serif:id="アートボード1" x="0" y="0" width="192" height="192"/></clipPath><g clip-path="url(#_clip1)"><g><g><path d="M169.544,131.803c7.442,0 13.474,-6.032 13.474,-13.473c-0,-7.441 -6.032,-13.473 -13.474,-13.473c-7.441,-0 -13.473,6.032 -13.473,13.473c0,7.441 6.032,13.473 13.473,13.473m0,-35.928c12.402,-0 22.456,10.053 22.456,22.455l0,22.455l-8.982,0l-0,-4.49c-3.754,2.819 -8.418,4.49 -13.474,4.49c-12.401,0 -22.455,-10.053 -22.455,-22.455c-0,-12.402 10.054,-22.455 22.455,-22.455m-76.474,44.824l-0,-17.154c-0,-0.382 0.31,-0.693 0.693,-0.693c0.181,0 0.355,0.071 0.484,0.198l18.022,17.649l12.872,-0l-22.821,-22.35l22.415,-21.952l-12.872,0l-17.616,17.251c-0.129,0.127 -0.303,0.198 -0.484,0.198c-0.383,0 -0.693,-0.31 -0.693,-0.693l-0,-62.064l-9.006,0l-0,89.61l9.006,-0Zm-41.291,-44.193c-6.361,-0 -12.04,2.953 -15.758,7.554c-3.717,-4.601 -9.397,-7.554 -15.758,-7.554c-4.409,-0 -8.481,1.431 -11.81,3.831l-8.453,-3.831l-0,44.405l9.006,-0l-0,-24.144c-0,-6.206 5.049,-11.255 11.257,-11.255c6.206,-0 11.255,5.049 11.255,11.255l0,24.144l9.006,-0l0,-24.144c0,-6.206 5.049,-11.255 11.255,-11.255c6.208,-0 11.257,5.049 11.257,11.255l0,24.144l9.006,-0l0,-24.144c0,-11.172 -9.089,-20.261 -20.263,-20.261m87.633,26.439l-18.011,0l0,-9.006l18.011,0l-0,9.006Z" style="fill:#3e3938;fill-rule:nonzero;"/></g></g></g></svg>