<?xml version="1.0" encoding="UTF-8" standalone="no"?>
<!DOCTYPE svg PUBLIC "-//W3C//DTD SVG 1.1//EN" "http://www.w3.org/Graphics/SVG/1.1/DTD/svg11.dtd">
<svg width="100%" height="100%" viewBox="0 0 1648 335" version="1.1" xmlns="http://www.w3.org/2000/svg" xmlns:xlink="http://www.w3.org/1999/xlink" xml:space="preserve" xmlns:serif="http://www.serif.com/" style="fill-rule:evenodd;clip-rule:evenodd;stroke-miterlimit:10;">
    <g transform="matrix(1,0,0,1.03503,-643.61,-2506.47)">
        <g id="アートボード4">
            <rect x="643.61" y="2421.64" width="1647.74" height="323.576" style="fill:none;"/>
            <g transform="matrix(1,0,0,0.966154,-643.482,77.5966)">
                <g>
                    <g transform="matrix(4.16667,0,0,4.16667,1373.09,2557.22)">
                        <path d="M0,-13.365C0.975,-12.333 1.463,-10.911 1.463,-9.096L1.463,1.547L-0.85,1.547L-0.85,-8.076C-0.85,-9.755 -1.168,-10.962 -1.801,-11.698C-2.437,-12.435 -3.265,-12.804 -4.285,-12.804C-5.533,-12.804 -6.502,-12.322 -7.193,-11.359C-7.885,-10.395 -8.288,-9.085 -8.401,-7.43L-8.401,1.547L-10.712,1.547L-10.712,-8.076C-10.712,-9.755 -11.03,-10.962 -11.666,-11.698C-12.3,-12.435 -13.127,-12.804 -14.148,-12.804C-15.532,-12.804 -16.567,-12.226 -17.259,-11.07C-17.952,-9.913 -18.296,-8.36 -18.296,-6.41L-18.296,1.547L-20.609,1.547L-20.609,-14.369L-18.296,-14.369L-18.296,-11.886C-17.774,-12.861 -17.112,-13.609 -16.307,-14.131C-15.502,-14.653 -14.578,-14.912 -13.535,-14.912C-12.378,-14.912 -11.371,-14.602 -10.509,-13.978C-9.647,-13.353 -9.045,-12.464 -8.706,-11.308C-8.208,-12.441 -7.527,-13.326 -6.666,-13.961C-5.804,-14.596 -4.806,-14.912 -3.673,-14.912C-2.2,-14.912 -0.975,-14.397 0,-13.365" style="fill:rgb(35,25,22);fill-rule:nonzero;"/>
                    </g>
                    <g transform="matrix(4.16667,0,0,4.16667,1373.09,2557.22)">
                        <path d="M0,-13.365C0.975,-12.333 1.463,-10.911 1.463,-9.096L1.463,1.547L-0.85,1.547L-0.85,-8.076C-0.85,-9.755 -1.168,-10.962 -1.801,-11.698C-2.437,-12.435 -3.265,-12.804 -4.285,-12.804C-5.533,-12.804 -6.502,-12.322 -7.193,-11.359C-7.885,-10.395 -8.288,-9.085 -8.401,-7.43L-8.401,1.547L-10.712,1.547L-10.712,-8.076C-10.712,-9.755 -11.03,-10.962 -11.666,-11.698C-12.3,-12.435 -13.127,-12.804 -14.148,-12.804C-15.532,-12.804 -16.567,-12.226 -17.259,-11.07C-17.952,-9.913 -18.296,-8.36 -18.296,-6.41L-18.296,1.547L-20.609,1.547L-20.609,-14.369L-18.296,-14.369L-18.296,-11.886C-17.774,-12.861 -17.112,-13.609 -16.307,-14.131C-15.502,-14.653 -14.578,-14.912 -13.535,-14.912C-12.378,-14.912 -11.371,-14.602 -10.509,-13.978C-9.647,-13.353 -9.045,-12.464 -8.706,-11.308C-8.208,-12.441 -7.527,-13.326 -6.666,-13.961C-5.804,-14.596 -4.806,-14.912 -3.673,-14.912C-2.2,-14.912 -0.975,-14.397 0,-13.365Z" style="fill:none;fill-rule:nonzero;stroke:rgb(35,25,22);stroke-width:0.5px;"/>
                    </g>
                    <g transform="matrix(4.16667,0,0,4.16667,1508.14,2460.79)">
                        <path d="M0,24.69L-5.578,16.495L-7.516,18.364L-7.516,24.69L-9.829,24.69L-9.829,0L-7.516,0L-7.516,15.44L-0.545,8.774L2.448,8.774L-3.979,14.965L2.585,24.69L0,24.69Z" style="fill:rgb(35,25,22);fill-rule:nonzero;stroke:rgb(35,25,22);stroke-width:0.5px;"/>
                    </g>
                    <g transform="matrix(4.16667,0,0,4.16667,-388.823,725.11)">
                        <rect x="477.07" y="431.935" width="7.721" height="1.905" style="fill:rgb(35,25,22);stroke:rgb(35,25,22);stroke-width:0.5px;"/>
                    </g>
                    <g transform="matrix(4.16667,0,0,4.16667,1759.59,2507.27)">
                        <path d="M0,11.157C0.85,10.611 1.514,9.851 1.991,8.877C2.466,7.904 2.704,6.802 2.704,5.579C2.704,4.354 2.466,3.254 1.991,2.279C1.514,1.304 0.85,0.544 0,0.001C-0.85,-0.544 -1.819,-0.816 -2.907,-0.816C-3.974,-0.816 -4.925,-0.544 -5.763,0.001C-6.603,0.544 -7.26,1.299 -7.736,2.261C-8.213,3.227 -8.451,4.321 -8.451,5.544C-8.451,6.792 -8.213,7.904 -7.736,8.877C-7.26,9.851 -6.603,10.611 -5.763,11.157C-4.925,11.7 -3.974,11.971 -2.907,11.971C-1.819,11.971 -0.85,11.7 0,11.157M5.017,-2.38L5.017,13.536L2.704,13.536L2.704,11.19C2.046,12.096 1.243,12.805 0.29,13.315C-0.662,13.825 -1.706,14.081 -2.838,14.081C-4.358,14.081 -5.718,13.718 -6.92,12.993C-8.123,12.266 -9.063,11.259 -9.743,9.965C-10.422,8.674 -10.763,7.2 -10.763,5.544C-10.763,3.912 -10.428,2.455 -9.76,1.174C-9.092,-0.106 -8.162,-1.111 -6.971,-1.835C-5.781,-2.56 -4.427,-2.924 -2.907,-2.924C-1.75,-2.924 -0.691,-2.67 0.274,-2.159C1.237,-1.648 2.046,-0.929 2.704,0.001L2.704,-2.38L5.017,-2.38Z" style="fill:rgb(35,25,22);fill-rule:nonzero;"/>
                    </g>
                    <g transform="matrix(4.16667,0,0,4.16667,1759.59,2507.27)">
                        <path d="M0,11.157C0.85,10.611 1.514,9.851 1.991,8.877C2.466,7.904 2.704,6.802 2.704,5.579C2.704,4.354 2.466,3.254 1.991,2.279C1.514,1.304 0.85,0.544 0,0.001C-0.85,-0.544 -1.819,-0.816 -2.907,-0.816C-3.974,-0.816 -4.925,-0.544 -5.763,0.001C-6.603,0.544 -7.26,1.299 -7.736,2.261C-8.213,3.227 -8.451,4.321 -8.451,5.544C-8.451,6.792 -8.213,7.904 -7.736,8.877C-7.26,9.851 -6.603,10.611 -5.763,11.157C-4.925,11.7 -3.974,11.971 -2.907,11.971C-1.819,11.971 -0.85,11.7 0,11.157ZM5.017,-2.38L5.017,13.536L2.704,13.536L2.704,11.19C2.046,12.096 1.243,12.805 0.29,13.315C-0.662,13.825 -1.706,14.081 -2.838,14.081C-4.358,14.081 -5.718,13.718 -6.92,12.993C-8.123,12.266 -9.063,11.259 -9.743,9.965C-10.422,8.674 -10.763,7.2 -10.763,5.544C-10.763,3.912 -10.428,2.455 -9.76,1.174C-9.092,-0.106 -8.162,-1.111 -6.971,-1.835C-5.781,-2.56 -4.427,-2.924 -2.907,-2.924C-1.75,-2.924 -0.691,-2.67 0.274,-2.159C1.237,-1.648 2.046,-0.929 2.704,0.001L2.704,-2.38L5.017,-2.38Z" style="fill:none;fill-rule:nonzero;stroke:rgb(35,25,22);stroke-width:0.5px;"/>
                    </g>
                    <g transform="matrix(4.16667,0,0,4.16667,1908.31,2562.67)">
                        <path d="M0,-15.983L0,-13.875C-0.477,-14.102 -0.999,-14.215 -1.565,-14.215C-2.54,-14.215 -3.448,-13.943 -4.287,-13.398C-5.125,-12.855 -5.801,-12.066 -6.311,-11.036C-6.82,-10.003 -7.074,-8.786 -7.074,-7.379L-7.074,0.238L-9.388,0.238L-9.388,-15.678L-7.074,-15.678L-7.074,-12.48C-6.463,-13.66 -5.687,-14.578 -4.746,-15.234C-3.804,-15.893 -2.745,-16.221 -1.565,-16.221C-1.022,-16.221 -0.5,-16.141 0,-15.983Z" style="fill:rgb(35,25,22);fill-rule:nonzero;stroke:rgb(35,25,22);stroke-width:0.5px;"/>
                    </g>
                    <g transform="matrix(4.16667,0,0,4.16667,1998.29,2499.62)">
                        <path d="M0,14.829C-1.202,14.102 -2.141,13.095 -2.821,11.801C-3.503,10.51 -3.843,9.046 -3.843,7.415C-3.843,5.782 -3.509,4.32 -2.839,3.027C-2.17,1.736 -1.235,0.725 -0.033,0.001C1.168,-0.724 2.528,-1.088 4.048,-1.088C5.339,-1.088 6.469,-0.81 7.432,-0.255C8.395,0.302 9.274,1.089 10.067,2.109L8.368,3.435C7.256,1.826 5.816,1.02 4.048,1.02C2.981,1.02 2.024,1.292 1.174,1.837C0.324,2.38 -0.34,3.141 -0.815,4.115C-1.292,5.09 -1.53,6.19 -1.53,7.415C-1.53,8.638 -1.292,9.74 -0.815,10.713C-0.34,11.687 0.324,12.447 1.174,12.993C2.024,13.536 2.981,13.808 4.048,13.808C5.136,13.808 6.031,13.622 6.734,13.247C7.437,12.874 8.072,12.324 8.639,11.598L10.442,12.856C9.694,13.786 8.77,14.528 7.67,15.083C6.57,15.64 5.386,15.917 4.116,15.917C2.573,15.917 1.202,15.554 0,14.829" style="fill:rgb(35,25,22);fill-rule:nonzero;"/>
                    </g>
                    <g transform="matrix(4.16667,0,0,4.16667,1998.29,2499.62)">
                        <path d="M0,14.829C-1.202,14.102 -2.141,13.095 -2.821,11.801C-3.503,10.51 -3.843,9.046 -3.843,7.415C-3.843,5.782 -3.509,4.32 -2.839,3.027C-2.17,1.736 -1.235,0.725 -0.033,0.001C1.168,-0.724 2.528,-1.088 4.048,-1.088C5.339,-1.088 6.469,-0.81 7.432,-0.255C8.395,0.302 9.274,1.089 10.067,2.109L8.368,3.435C7.256,1.826 5.816,1.02 4.048,1.02C2.981,1.02 2.024,1.292 1.174,1.837C0.324,2.38 -0.34,3.141 -0.815,4.115C-1.292,5.09 -1.53,6.19 -1.53,7.415C-1.53,8.638 -1.292,9.74 -0.815,10.713C-0.34,11.687 0.324,12.447 1.174,12.993C2.024,13.536 2.981,13.808 4.048,13.808C5.136,13.808 6.031,13.622 6.734,13.247C7.437,12.874 8.072,12.324 8.639,11.598L10.442,12.856C9.694,13.786 8.77,14.528 7.67,15.083C6.57,15.64 5.386,15.917 4.116,15.917C2.573,15.917 1.202,15.554 0,14.829Z" style="fill:none;fill-rule:nonzero;stroke:rgb(35,25,22);stroke-width:0.5px;"/>
                    </g>
                    <g transform="matrix(4.16667,0,0,4.16667,2169.54,2526.54)">
                        <path d="M0,-6.868C0.939,-6.415 1.688,-5.747 2.245,-4.862C2.8,-3.977 3.077,-2.933 3.077,-1.732L3.077,8.911L0.766,8.911L0.766,-0.712C0.766,-3.864 -0.641,-5.44 -3.452,-5.44C-5.085,-5.44 -6.309,-4.862 -7.125,-3.705C-7.941,-2.549 -8.35,-0.995 -8.35,0.954L-8.35,8.911L-10.663,8.911L-10.663,-15.779L-8.35,-15.779L-8.35,-4.352C-7.805,-5.372 -7.086,-6.159 -6.189,-6.716C-5.294,-7.271 -4.257,-7.548 -3.079,-7.548C-1.967,-7.548 -0.941,-7.322 0,-6.868" style="fill:rgb(35,25,22);fill-rule:nonzero;"/>
                    </g>
                    <g transform="matrix(4.16667,0,0,4.16667,2169.54,2526.54)">
                        <path d="M0,-6.868C0.939,-6.415 1.688,-5.747 2.245,-4.862C2.8,-3.977 3.077,-2.933 3.077,-1.732L3.077,8.911L0.766,8.911L0.766,-0.712C0.766,-3.864 -0.641,-5.44 -3.452,-5.44C-5.085,-5.44 -6.309,-4.862 -7.125,-3.705C-7.941,-2.549 -8.35,-0.995 -8.35,0.954L-8.35,8.911L-10.663,8.911L-10.663,-15.779L-8.35,-15.779L-8.35,-4.352C-7.805,-5.372 -7.086,-6.159 -6.189,-6.716C-5.294,-7.271 -4.257,-7.548 -3.079,-7.548C-1.967,-7.548 -0.941,-7.322 0,-6.868Z" style="fill:none;fill-rule:nonzero;stroke:rgb(35,25,22);stroke-width:0.5px;"/>
                    </g>
                    <g transform="matrix(4.16667,0,0,4.16667,-388.823,700.31)">
                        <path d="M639.771,431.289L642.083,431.289L642.083,447.205L639.771,447.205L639.771,431.289ZM639.616,427.651C639.265,427.288 639.089,426.847 639.089,426.325C639.089,425.826 639.265,425.401 639.616,425.049C639.968,424.698 640.404,424.522 640.926,424.522C641.426,424.522 641.855,424.698 642.219,425.049C642.58,425.401 642.762,425.836 642.762,426.358C642.762,426.858 642.58,427.288 642.219,427.651C641.855,428.013 641.426,428.195 640.926,428.195C640.404,428.195 639.968,428.013 639.616,427.651" style="fill:rgb(35,25,22);fill-rule:nonzero;"/>
                    </g>
                    <g transform="matrix(4.16667,0,0,4.16667,-388.823,700.31)">
                        <path d="M639.771,431.289L642.083,431.289L642.083,447.205L639.771,447.205L639.771,431.289ZM639.616,427.651C639.265,427.288 639.089,426.847 639.089,426.325C639.089,425.826 639.265,425.401 639.616,425.049C639.968,424.698 640.404,424.522 640.926,424.522C641.426,424.522 641.855,424.698 642.219,425.049C642.58,425.401 642.762,425.836 642.762,426.358C642.762,426.858 642.58,427.288 642.219,427.651C641.855,428.013 641.426,428.195 640.926,428.195C640.404,428.195 639.968,428.013 639.616,427.651Z" style="fill:none;fill-rule:nonzero;stroke:rgb(35,25,22);stroke-width:0.5px;"/>
                    </g>
                    <g transform="matrix(4.16667,0,0,4.16667,2384.02,2475.39)">
                        <path d="M0,21.187L0,7.381L-2.722,7.381L-2.722,5.271L0,5.271L0,0L2.311,0L2.311,5.271L5.983,5.271L5.983,7.381L2.311,7.381L2.311,21.187L0,21.187Z" style="fill:rgb(35,25,22);fill-rule:nonzero;stroke:rgb(35,25,22);stroke-width:0.5px;"/>
                    </g>
                    <g transform="matrix(4.16667,0,0,4.16667,2540.88,2536.46)">
                        <path d="M0,-2.856C-0.227,-4.511 -0.781,-5.753 -1.666,-6.582C-2.549,-7.408 -3.753,-7.822 -5.271,-7.822C-6.746,-7.822 -7.953,-7.351 -8.893,-6.41C-9.834,-5.47 -10.429,-4.284 -10.679,-2.856L0,-2.856ZM-1.395,-8.877C-0.238,-8.174 0.669,-7.214 1.327,-6.003C1.983,-4.79 2.313,-3.434 2.313,-1.938C2.313,-1.508 2.302,-1.178 2.278,-0.953L-10.815,-0.953C-10.724,0.68 -10.192,2.075 -9.215,3.231C-8.242,4.389 -6.916,4.965 -5.237,4.965C-3.876,4.965 -2.748,4.711 -1.854,4.201C-0.957,3.69 -0.238,2.981 0.307,2.075L2.144,3.298C1.396,4.478 0.408,5.402 -0.816,6.07C-2.039,6.738 -3.491,7.074 -5.169,7.074C-6.711,7.074 -8.082,6.711 -9.283,5.986C-10.487,5.26 -11.427,4.252 -12.106,2.958C-12.786,1.667 -13.126,0.204 -13.126,-1.428C-13.126,-3.061 -12.792,-4.523 -12.124,-5.815C-11.456,-7.107 -10.526,-8.117 -9.334,-8.842C-8.145,-9.567 -6.791,-9.93 -5.271,-9.93C-3.843,-9.93 -2.549,-9.579 -1.395,-8.877" style="fill:rgb(35,25,22);fill-rule:nonzero;"/>
                    </g>
                    <g transform="matrix(4.16667,0,0,4.16667,2540.88,2536.46)">
                        <path d="M0,-2.856C-0.227,-4.511 -0.781,-5.753 -1.666,-6.582C-2.549,-7.408 -3.753,-7.822 -5.271,-7.822C-6.746,-7.822 -7.953,-7.351 -8.893,-6.41C-9.834,-5.47 -10.429,-4.284 -10.679,-2.856L0,-2.856ZM-1.395,-8.877C-0.238,-8.174 0.669,-7.214 1.327,-6.003C1.983,-4.79 2.313,-3.434 2.313,-1.938C2.313,-1.508 2.302,-1.178 2.278,-0.953L-10.815,-0.953C-10.724,0.68 -10.192,2.075 -9.215,3.231C-8.242,4.389 -6.916,4.965 -5.237,4.965C-3.876,4.965 -2.748,4.711 -1.854,4.201C-0.957,3.69 -0.238,2.981 0.307,2.075L2.144,3.298C1.396,4.478 0.408,5.402 -0.816,6.07C-2.039,6.738 -3.491,7.074 -5.169,7.074C-6.711,7.074 -8.082,6.711 -9.283,5.986C-10.487,5.26 -11.427,4.252 -12.106,2.958C-12.786,1.667 -13.126,0.204 -13.126,-1.428C-13.126,-3.061 -12.792,-4.523 -12.124,-5.815C-11.456,-7.107 -10.526,-8.117 -9.334,-8.842C-8.145,-9.567 -6.791,-9.93 -5.271,-9.93C-3.843,-9.93 -2.549,-9.579 -1.395,-8.877Z" style="fill:none;fill-rule:nonzero;stroke:rgb(35,25,22);stroke-width:0.5px;"/>
                    </g>
                    <g transform="matrix(4.16667,0,0,4.16667,2647.16,2499.62)">
                        <path d="M0,14.829C-1.202,14.102 -2.142,13.095 -2.821,11.801C-3.503,10.51 -3.844,9.046 -3.844,7.415C-3.844,5.782 -3.509,4.32 -2.839,3.027C-2.171,1.736 -1.235,0.725 -0.033,0.001C1.168,-0.724 2.527,-1.088 4.048,-1.088C5.339,-1.088 6.468,-0.81 7.432,-0.255C8.395,0.302 9.273,1.089 10.066,2.109L8.367,3.435C7.256,1.826 5.815,1.02 4.048,1.02C2.98,1.02 2.023,1.292 1.174,1.837C0.324,2.38 -0.341,3.141 -0.815,4.115C-1.292,5.09 -1.53,6.19 -1.53,7.415C-1.53,8.638 -1.292,9.74 -0.815,10.713C-0.341,11.687 0.324,12.447 1.174,12.993C2.023,13.536 2.98,13.808 4.048,13.808C5.136,13.808 6.03,13.622 6.733,13.247C7.437,12.874 8.072,12.324 8.639,11.598L10.441,12.856C9.693,13.786 8.77,14.528 7.67,15.083C6.569,15.64 5.386,15.917 4.116,15.917C2.572,15.917 1.201,15.554 0,14.829" style="fill:rgb(35,25,22);fill-rule:nonzero;"/>
                    </g>
                    <g transform="matrix(4.16667,0,0,4.16667,2647.16,2499.62)">
                        <path d="M0,14.829C-1.202,14.102 -2.142,13.095 -2.821,11.801C-3.503,10.51 -3.844,9.046 -3.844,7.415C-3.844,5.782 -3.509,4.32 -2.839,3.027C-2.171,1.736 -1.235,0.725 -0.033,0.001C1.168,-0.724 2.527,-1.088 4.048,-1.088C5.339,-1.088 6.468,-0.81 7.432,-0.255C8.395,0.302 9.273,1.089 10.066,2.109L8.367,3.435C7.256,1.826 5.815,1.02 4.048,1.02C2.98,1.02 2.023,1.292 1.174,1.837C0.324,2.38 -0.341,3.141 -0.815,4.115C-1.292,5.09 -1.53,6.19 -1.53,7.415C-1.53,8.638 -1.292,9.74 -0.815,10.713C-0.341,11.687 0.324,12.447 1.174,12.993C2.023,13.536 2.98,13.808 4.048,13.808C5.136,13.808 6.03,13.622 6.733,13.247C7.437,12.874 8.072,12.324 8.639,11.598L10.441,12.856C9.693,13.786 8.77,14.528 7.67,15.083C6.569,15.64 5.386,15.917 4.116,15.917C2.572,15.917 1.201,15.554 0,14.829Z" style="fill:none;fill-rule:nonzero;stroke:rgb(35,25,22);stroke-width:0.5px;"/>
                    </g>
                    <g transform="matrix(4.16667,0,0,4.16667,2777.52,2475.39)">
                        <path d="M0,21.187L0,7.381L-2.719,7.381L-2.719,5.271L0,5.271L0,0L2.313,0L2.313,5.271L5.986,5.271L5.986,7.381L2.313,7.381L2.313,21.187L0,21.187Z" style="fill:rgb(35,25,22);fill-rule:nonzero;stroke:rgb(35,25,22);stroke-width:0.5px;"/>
                    </g>
                    <g transform="matrix(4.16667,0,0,4.16667,2890.26,2499.19)">
                        <path d="M0,15.032C-1.168,14.374 -2.06,13.446 -2.671,12.242L-0.596,11.222C0.242,13.014 1.888,13.909 4.335,13.909C5.514,13.909 6.488,13.694 7.26,13.264C8.031,12.833 8.416,12.164 8.416,11.258C8.416,10.328 8.104,9.636 7.48,9.183C6.857,8.73 5.764,8.435 4.198,8.298C2.022,8.116 0.463,7.63 -0.477,6.837C-1.418,6.043 -1.889,4.989 -1.889,3.674C-1.889,2.199 -1.355,1.053 -0.289,0.237C0.775,-0.578 2.237,-0.986 4.097,-0.986C7.248,-0.986 9.392,0.261 10.524,2.755L8.449,3.775C8.064,2.868 7.504,2.199 6.768,1.769C6.029,1.339 5.084,1.122 3.927,1.122C2.749,1.122 1.847,1.339 1.223,1.769C0.6,2.199 0.287,2.812 0.287,3.605C0.287,4.353 0.623,4.959 1.291,5.424C1.96,5.889 3.11,6.19 4.743,6.324C6.762,6.508 8.264,7.001 9.249,7.805C10.235,8.611 10.729,9.669 10.729,10.984C10.729,12.051 10.423,12.964 9.812,13.723C9.198,14.483 8.383,15.055 7.361,15.44C6.342,15.825 5.242,16.018 4.063,16.018C2.521,16.018 1.166,15.688 0,15.032" style="fill:rgb(35,25,22);fill-rule:nonzero;"/>
                    </g>
                    <g transform="matrix(4.16667,0,0,4.16667,2890.26,2499.19)">
                        <path d="M0,15.032C-1.168,14.374 -2.06,13.446 -2.671,12.242L-0.596,11.222C0.242,13.014 1.888,13.909 4.335,13.909C5.514,13.909 6.488,13.694 7.26,13.264C8.031,12.833 8.416,12.164 8.416,11.258C8.416,10.328 8.104,9.636 7.48,9.183C6.857,8.73 5.764,8.435 4.198,8.298C2.022,8.116 0.463,7.63 -0.477,6.837C-1.418,6.043 -1.889,4.989 -1.889,3.674C-1.889,2.199 -1.355,1.053 -0.289,0.237C0.775,-0.578 2.237,-0.986 4.097,-0.986C7.248,-0.986 9.392,0.261 10.524,2.755L8.449,3.775C8.064,2.868 7.504,2.199 6.768,1.769C6.029,1.339 5.084,1.122 3.927,1.122C2.749,1.122 1.847,1.339 1.223,1.769C0.6,2.199 0.287,2.812 0.287,3.605C0.287,4.353 0.623,4.959 1.291,5.424C1.96,5.889 3.11,6.19 4.743,6.324C6.762,6.508 8.264,7.001 9.249,7.805C10.235,8.611 10.729,9.669 10.729,10.984C10.729,12.051 10.423,12.964 9.812,13.723C9.198,14.483 8.383,15.055 7.361,15.44C6.342,15.825 5.242,16.018 4.063,16.018C2.521,16.018 1.166,15.688 0,15.032Z" style="fill:none;fill-rule:nonzero;stroke:rgb(35,25,22);stroke-width:0.5px;"/>
                    </g>
                    <g transform="matrix(4.16667,0,0,4.16667,-388.823,1099.63)">
                        <path d="M458.027,368.826L458.652,368.826L458.652,390.217L458.027,390.217L458.027,368.826ZM450.635,369.738L451.258,369.738L451.258,388.945L450.635,388.945L450.635,369.738ZM439.327,389.881C440.526,388.424 441.388,387.159 441.908,386.087C442.427,385.017 442.779,383.742 442.964,382.272C443.148,380.798 443.24,378.638 443.24,375.789L443.24,368.852L443.863,368.852L443.863,375.789C443.863,378.702 443.771,380.917 443.588,382.439C443.404,383.959 443.044,385.276 442.507,386.388C441.972,387.499 441.103,388.793 439.903,390.264L439.327,389.881Z" style="fill:rgb(35,25,22);fill-rule:nonzero;"/>
                    </g>
                    <g transform="matrix(4.16667,0,0,4.16667,1613.75,2689.74)">
                        <path d="M0,-4.95C-1.44,-6.116 -2.808,-7.165 -4.105,-8.094L-3.769,-8.551C-1.768,-7.11 -0.383,-6.061 0.385,-5.405L0,-4.95ZM-6.697,-2.285L9.243,-2.285C9.147,0.804 8.979,3.301 8.739,5.205C8.643,6.086 8.471,6.746 8.223,7.187C7.975,7.626 7.59,7.939 7.07,8.122C6.55,8.306 5.787,8.4 4.778,8.4C4.026,8.4 3.088,8.327 1.969,8.183L1.874,7.558C2.848,7.718 3.89,7.798 4.993,7.798C5.761,7.782 6.353,7.683 6.771,7.499C7.187,7.314 7.49,7.03 7.684,6.647C7.875,6.262 8.01,5.735 8.09,5.061C8.314,3.285 8.475,1.036 8.57,-1.683L-7.346,-1.683L-7.346,-10.734L-2.688,-10.734C-2.353,-11.583 -2.032,-12.456 -1.727,-13.35L-1.081,-13.231L-1.993,-10.734L6.699,-10.734C6.65,-9.39 6.513,-7.99 6.291,-6.534C6.195,-5.829 6.05,-5.29 5.859,-4.913C5.666,-4.538 5.378,-4.264 4.993,-4.096C4.61,-3.929 4.073,-3.845 3.386,-3.845C2.649,-3.845 1.92,-3.893 1.201,-3.989L1.08,-4.565C1.946,-4.454 2.68,-4.397 3.29,-4.397C3.866,-4.397 4.306,-4.466 4.61,-4.6C4.913,-4.737 5.142,-4.958 5.294,-5.261C5.447,-5.565 5.57,-6.005 5.666,-6.581C5.875,-7.814 5.986,-8.99 6.001,-10.111L-6.697,-10.111L-6.697,-2.285ZM3.026,0.212L3.626,0.212L3.626,5.613L-9.194,5.613L-9.194,0.212L-8.569,0.212L-8.569,4.99L-3.097,4.99L-3.097,-0.82L-2.448,-0.82L-2.448,4.99L3.026,4.99L3.026,0.212Z" style="fill:rgb(35,25,22);fill-rule:nonzero;"/>
                    </g>
                    <g transform="matrix(4.16667,0,0,4.16667,-388.823,1097.73)">
                        <path d="M515.836,383.998L510.938,383.998L510.938,388.487L515.836,388.487L515.836,383.998ZM510.938,383.398L515.836,383.398L515.836,378.836L510.938,378.836L510.938,383.398ZM510.938,378.236L515.836,378.236L515.836,373.866L510.938,373.866L510.938,378.236ZM521.238,388.487L521.238,389.064L510.938,389.064L510.938,390.768L510.338,390.768L510.338,374.732C509.811,375.787 509.217,376.787 508.562,377.732L508.105,377.348C508.874,376.291 509.602,374.988 510.29,373.435C510.978,371.884 511.53,370.33 511.946,368.777L512.572,368.873C512.187,370.361 511.675,371.827 511.034,373.267L516.077,373.267C515.531,371.442 515.092,370.018 514.756,368.994L515.332,368.826L515.813,370.361C516.165,371.435 516.467,372.403 516.725,373.267L520.876,373.267L520.876,373.866L516.413,373.866L516.413,378.236L520.468,378.236L520.468,378.837L516.413,378.837L516.413,383.398L520.468,383.398L520.468,383.998L516.413,383.998L516.413,388.487L521.238,388.487ZM505.632,371.466L505.632,378.573L508.346,378.573L508.346,379.173L505.632,379.173L505.632,387.935C505.632,388.831 505.486,389.463 505.189,389.832C504.892,390.199 504.353,390.383 503.569,390.383C502.784,390.383 501.959,390.32 501.096,390.191L500.977,389.568C502.016,389.711 502.872,389.783 503.544,389.783C504.104,389.783 504.493,389.635 504.708,389.34C504.925,389.043 505.032,388.542 505.032,387.839L505.032,379.173L504.817,379.173C504.368,380.581 503.677,382.082 502.741,383.674C501.805,385.266 500.687,386.679 499.392,387.911L499.056,387.358C500.256,386.239 501.303,384.934 502.2,383.445C503.096,381.957 503.776,380.532 504.241,379.173L500.375,379.173L500.375,378.597C500.584,377.221 500.887,375.363 501.287,373.026L501.889,373.099C501.584,374.764 501.279,376.588 500.977,378.573L505.032,378.573L505.032,371.466L499.679,371.466L499.679,370.842L508.754,370.842L508.754,371.466L505.632,371.466Z" style="fill:rgb(35,25,22);fill-rule:nonzero;"/>
                    </g>
                    <g transform="matrix(4.16667,0,0,4.16667,1864.12,2677.32)">
                        <path d="M0,1.512C0.447,3.066 1.088,4.417 1.92,5.57C2.752,6.723 3.845,7.742 5.199,8.631C6.55,9.518 8.258,10.347 10.323,11.115L10.083,11.74C7.139,10.618 4.853,9.346 3.229,7.922C1.604,6.498 0.432,4.73 -0.288,2.616C-0.768,4.49 -1.844,6.161 -3.517,7.635C-5.189,9.106 -7.625,10.499 -10.828,11.812L-11.068,11.212C-8.538,10.156 -6.541,9.09 -5.078,8.018C-3.612,6.946 -2.562,5.886 -1.92,4.837C-1.28,3.79 -0.887,2.681 -0.745,1.512L-10.828,1.512L-10.828,0.889L-0.672,0.889L-0.649,0.336C-0.631,0.112 -0.624,-0.496 -0.624,-1.489L-0.649,-5.953L-6.146,-5.953C-7.057,-4.112 -8.122,-2.409 -9.339,-0.84L-9.866,-1.249C-8.809,-2.608 -7.87,-4.061 -7.045,-5.605C-6.221,-7.15 -5.545,-8.716 -5.017,-10.3L-4.392,-10.132C-4.81,-8.899 -5.289,-7.705 -5.834,-6.554L8.62,-6.554L8.62,-5.953L0,-5.953L0.025,-0.599L0.025,0.36L0,0.889L9.963,0.889L9.963,1.512L0,1.512Z" style="fill:rgb(35,25,22);fill-rule:nonzero;"/>
                    </g>
                    <g transform="matrix(4.16667,0,0,4.16667,-388.823,1096.63)">
                        <path d="M573.307,378.211L577.918,378.211L577.918,375.356L573.307,375.356L573.307,378.211ZM577.918,371.947L573.307,371.947L573.307,374.779L577.918,374.779L577.918,371.947ZM578.518,371.393L578.518,374.779L581.134,374.779L581.134,375.356L578.518,375.356L578.518,378.788L573.307,378.788L573.307,381.597L579.358,381.597L579.358,382.174L573.307,382.174L573.307,384.885L580.342,384.885L580.342,385.461L573.307,385.461L573.307,388.462L572.731,388.462L572.731,385.461L566.178,385.461L566.178,384.885L572.731,384.885L572.731,382.174L567.378,382.174L567.378,381.597L572.731,381.597L572.731,378.788L567.522,378.788L567.522,378.211L572.731,378.211L572.731,375.356L566.442,375.356L566.442,374.779L572.731,374.779L572.731,371.947L567.522,371.947L567.522,371.393L572.731,371.393L572.731,369.018L573.307,369.018L573.307,371.393L578.518,371.393ZM576.093,389.52C577.725,389.52 579.366,389.471 581.014,389.375L580.918,389.975C579.27,390.071 577.637,390.119 576.021,390.119C574.483,390.119 573.084,390.088 571.818,390.024C569.867,389.928 568.218,389.627 566.874,389.123C565.53,388.618 564.377,387.798 563.417,386.663C562.601,388.054 561.456,389.432 559.983,390.791L559.551,390.336C561.056,389.007 562.208,387.615 563.009,386.159C562.064,384.893 561.231,383.182 560.513,381.021L561.063,380.853C561.705,382.805 562.457,384.373 563.322,385.557C563.754,384.645 564.117,383.647 564.414,382.557C564.709,381.468 564.953,380.22 565.145,378.812L560.417,378.812L560.417,378.235L565.049,371.97L560.056,371.97L560.056,371.369L565.77,371.369L565.77,371.97L561.136,378.211L565.721,378.211L565.721,378.812C565.514,380.38 565.254,381.745 564.941,382.905C564.629,384.067 564.225,385.125 563.729,386.087C564.656,387.222 565.762,388.034 567.042,388.523C568.321,389.011 569.914,389.303 571.818,389.399C573.42,389.479 574.845,389.52 576.093,389.52" style="fill:rgb(35,25,22);fill-rule:nonzero;"/>
                    </g>
                    <g transform="matrix(4.16667,0,0,4.16667,2117.99,2675.33)">
                        <path d="M0,2.254C0.385,2.67 1.016,3.38 1.897,4.38C2.776,5.38 3.433,6.136 3.867,6.648L3.361,7.033C3.249,6.858 2.722,6.232 1.776,5.159C0.833,4.087 0.088,3.239 -0.455,2.615L0,2.254ZM9.434,-6.939L9.434,-6.314L3.914,-6.314L4.634,-5.139C5.322,-3.988 5.761,-3.259 5.955,-2.954L5.425,-2.642C4.673,-3.939 3.937,-5.164 3.217,-6.314L0.553,-6.314C-0.137,-4.986 -0.896,-3.747 -1.729,-2.595L-2.233,-2.907C-0.711,-5.051 0.537,-7.387 1.512,-9.917L2.114,-9.724C1.713,-8.716 1.305,-7.788 0.889,-6.939L9.434,-6.939ZM8.811,6.12L9.387,6.216C9.387,7.721 9.362,8.793 9.315,9.432C9.282,10.088 9.139,10.55 8.883,10.814C8.627,11.077 8.186,11.226 7.563,11.257C7.467,11.273 7.307,11.282 7.083,11.282C6.361,11.282 5.837,11.157 5.509,10.909C5.181,10.661 5.017,10.16 5.017,9.408L5.017,-0.507L-1.631,-0.507L-1.631,2.998C-1.631,4.583 -1.733,5.839 -1.932,6.768C-2.133,7.697 -2.561,8.572 -3.216,9.397C-3.872,10.222 -4.906,11.153 -6.314,12.194L-6.746,11.737C-5.369,10.714 -4.372,9.824 -3.757,9.072C-3.142,8.32 -2.733,7.504 -2.532,6.624C-2.333,5.743 -2.233,4.511 -2.233,2.926L-2.233,-1.13L5.666,-1.13L5.666,9.289C5.666,9.768 5.738,10.109 5.882,10.31C6.025,10.509 6.291,10.618 6.673,10.634C6.769,10.65 6.915,10.657 7.106,10.657C7.715,10.657 8.131,10.569 8.354,10.394C8.579,10.218 8.698,9.858 8.715,9.313L8.811,6.12ZM-8.834,-6.314C-9.811,-4.699 -10.802,-3.331 -11.812,-2.21L-12.267,-2.595C-11.388,-3.569 -10.519,-4.756 -9.663,-6.146C-8.807,-7.54 -8.137,-8.804 -7.658,-9.94L-7.059,-9.7C-7.457,-8.772 -7.93,-7.852 -8.473,-6.939L-1.321,-6.939L-1.321,-6.314L-6.121,-6.314L-5.017,-4.156L-4.417,-2.977L-4.968,-2.69C-5.097,-2.915 -5.314,-3.354 -5.617,-4.012C-5.761,-4.314 -5.933,-4.672 -6.132,-5.08C-6.333,-5.488 -6.545,-5.898 -6.77,-6.314L-8.834,-6.314ZM-4.177,7.512L-5.88,7.873C-8.682,8.496 -10.835,8.953 -12.339,9.24L-12.458,8.617C-10.603,8.248 -9.17,7.961 -8.162,7.752L-8.162,-0.193L-11.714,-0.193L-11.714,-0.819L-3.96,-0.819L-3.96,-0.193L-7.537,-0.193L-7.537,7.633L-4.226,6.936L-4.177,7.512Z" style="fill:rgb(35,25,22);fill-rule:nonzero;"/>
                    </g>
                    <g transform="matrix(4.16667,0,0,4.16667,2257.93,2698.63)">
                        <path d="M0,-6.748C0.783,-5.897 1.79,-4.77 3.013,-3.362C4.237,-1.953 5.178,-0.85 5.834,-0.049L5.354,0.406C4.696,-0.41 3.761,-1.525 2.546,-2.942C1.328,-4.358 0.328,-5.489 -0.455,-6.34L0,-6.748ZM0.096,-12.556C-0.416,-11.227 -0.889,-10.14 -1.32,-9.291L-1.32,6.457L-1.943,6.457L-1.943,-8.043C-3.657,-4.81 -5.569,-2.113 -7.682,0.047L-8.139,-0.434C-6.666,-1.904 -5.265,-3.706 -3.937,-5.835C-2.608,-7.963 -1.488,-10.204 -0.576,-12.556L-6.842,-12.556L-6.842,-13.205L5.689,-13.205L5.689,-12.556L0.096,-12.556ZM-11.403,2.112C-9.579,1.728 -8.242,1.433 -7.395,1.224L-7.322,1.849C-10.171,2.536 -13.02,3.12 -15.867,3.601L-15.988,2.999C-14.82,2.792 -13.5,2.536 -12.026,2.231L-12.026,-5.091L-15.436,-5.091L-15.436,-5.714L-12.026,-5.714L-12.026,-12.147L-15.676,-12.147L-15.676,-12.772L-7.777,-12.772L-7.777,-12.147L-11.403,-12.147L-11.403,-5.714L-7.971,-5.714L-7.971,-5.091L-11.403,-5.091L-11.403,2.112Z" style="fill:rgb(35,25,22);fill-rule:nonzero;"/>
                    </g>
                    <g transform="matrix(4.16667,0,0,4.16667,2363.56,2712.73)">
                        <path d="M0,-15.771C0.256,-14.732 0.473,-13.603 0.648,-12.387L5.258,-12.387C5.547,-13.955 5.738,-15.084 5.834,-15.771L0,-15.771ZM7.73,-5.953L-2.112,-5.953L-2.112,-3.528L7.73,-3.528L7.73,-5.953ZM7.73,-8.978L-2.112,-8.978L-2.112,-6.505L7.73,-6.505L7.73,-8.978ZM10.54,-12.387L10.54,-11.834L-4.032,-11.834L-4.032,-12.387L0.049,-12.387C-0.207,-13.923 -0.424,-15.052 -0.6,-15.771L-3.673,-15.771L-3.673,-16.347L2.856,-16.347C2.585,-17.02 2.226,-17.813 1.778,-18.725L2.378,-18.917C2.794,-18.116 3.177,-17.26 3.53,-16.347L9.843,-16.347L9.843,-15.771L6.434,-15.771C6.307,-14.732 6.113,-13.603 5.857,-12.387L10.54,-12.387ZM9.819,-1.871L10.396,-1.751C10.396,-1.4 10.372,-0.599 10.323,0.649C10.292,1.129 10.224,1.494 10.12,1.742C10.015,1.99 9.839,2.169 9.591,2.281C9.343,2.394 8.964,2.474 8.452,2.521C8.194,2.554 7.803,2.57 7.273,2.57C6.762,2.57 6.371,2.554 6.098,2.521C5.459,2.474 5.025,2.322 4.803,2.066C4.578,1.81 4.467,1.322 4.467,0.6L4.467,-2.977L0.793,-2.977C0.793,-2.657 0.783,-2.448 0.768,-2.352C0.721,-1.408 0.477,-0.607 0.037,0.049C-0.404,0.706 -1.08,1.277 -1.992,1.765C-2.905,2.253 -4.128,2.714 -5.665,3.146L-5.88,2.57C-4.296,2.121 -3.073,1.658 -2.207,1.176C-1.344,0.696 -0.74,0.176 -0.396,-0.384C-0.051,-0.943 0.137,-1.607 0.168,-2.377C0.184,-2.473 0.193,-2.672 0.193,-2.977L-2.712,-2.977L-2.712,-9.53L8.331,-9.53L8.331,-2.977L5.043,-2.977L5.043,0.481C5.043,1.041 5.127,1.41 5.295,1.585C5.463,1.761 5.818,1.88 6.363,1.945C6.586,1.978 6.914,1.994 7.346,1.994C7.779,1.994 8.099,1.978 8.308,1.945C8.724,1.898 9.022,1.837 9.208,1.765C9.392,1.693 9.522,1.566 9.603,1.382C9.683,1.196 9.731,0.92 9.747,0.553C9.796,-0.648 9.819,-1.455 9.819,-1.871M-4.2,-3.192C-7.082,-2.072 -9.441,-1.199 -11.282,-0.576L-11.45,-1.199C-10.218,-1.615 -9.098,-2.007 -8.09,-2.377L-8.09,-11.739L-11.019,-11.739L-11.019,-12.338L-8.09,-12.338L-8.09,-18.821L-7.465,-18.821L-7.465,-12.338L-4.608,-12.338L-4.608,-11.739L-7.465,-11.739L-7.465,-2.616L-6.986,-2.809C-6.089,-3.129 -5.2,-3.465 -4.321,-3.817L-4.2,-3.192Z" style="fill:rgb(35,25,22);fill-rule:nonzero;"/>
                    </g>
                    <g transform="matrix(4.16667,0,0,4.16667,2483.79,2682.71)">
                        <path d="M0,-0.574C0.817,1.81 2.233,3.835 4.25,5.5C6.49,3.771 8.021,1.747 8.835,-0.574L0,-0.574ZM1.226,-7.441C1.226,-6.72 1.134,-6.109 0.95,-5.604C0.765,-5.1 0.417,-4.612 -0.096,-4.139C-0.607,-3.667 -1.344,-3.159 -2.303,-2.616L-2.734,-3.12C-1.791,-3.647 -1.084,-4.12 -0.611,-4.536C-0.139,-4.952 0.182,-5.387 0.351,-5.845C0.519,-6.301 0.603,-6.881 0.603,-7.584L0.603,-10.081L7.78,-10.081L7.78,-5.761C7.78,-5.216 7.872,-4.852 8.056,-4.667C8.239,-4.483 8.604,-4.376 9.147,-4.345L11.74,-4.345L11.645,-3.72L9.101,-3.72C8.38,-3.751 7.876,-3.895 7.587,-4.151C7.299,-4.407 7.154,-4.903 7.154,-5.639L7.154,-9.481L1.226,-9.481L1.226,-7.441ZM11.525,10.253C8.515,9.005 6.1,7.676 4.275,6.268C2.29,7.74 -0.295,9.083 -3.479,10.3L-3.792,9.724C-0.687,8.556 1.841,7.268 3.795,5.86C1.649,4.05 0.176,1.907 -0.623,-0.574L-2.039,-0.574L-2.039,-1.176L9.507,-1.176L9.507,-0.574C8.644,1.907 7.059,4.066 4.754,5.906C6.531,7.268 8.884,8.509 11.813,9.628L11.525,10.253ZM-4.2,-6.361C-4.632,-6.888 -5.272,-7.576 -6.12,-8.426C-6.969,-9.274 -7.666,-9.946 -8.209,-10.442L-7.729,-10.874C-7.297,-10.505 -6.669,-9.901 -5.845,-9.06C-5.021,-8.22 -4.319,-7.488 -3.745,-6.865L-4.2,-6.361ZM-1.607,5.5L-4.081,7.467L-5.399,8.501C-5.735,8.82 -6.048,9.14 -6.337,9.46L-6.769,9.005C-6.544,8.747 -6.409,8.575 -6.36,8.488C-6.312,8.399 -6.288,8.291 -6.288,8.162L-6.288,-2.448L-10.033,-2.448L-10.033,-3.048L-5.665,-3.048L-5.665,7.947C-3.872,6.492 -2.6,5.475 -1.848,4.898L-1.607,5.5Z" style="fill:rgb(35,25,22);fill-rule:nonzero;"/>
                    </g>
                    <g transform="matrix(4.16667,0,0,4.16667,2628.63,2689.23)">
                        <path d="M0,-4.42L7.082,-4.42L7.082,-3.772L0,-3.772L0,8.689L-0.646,8.689L-0.646,-3.772L-7.682,-3.772L-7.682,-4.42L-0.646,-4.42L-0.646,-13.109L0,-13.109L0,-4.42ZM-8.498,-7.517C-8.736,-7.819 -9.137,-8.292 -9.697,-8.933L-12.507,-12.342L-12.026,-12.75L-8.018,-7.925L-8.498,-7.517ZM-10.394,6.335C-9.785,5.919 -7.977,4.583 -4.968,2.326L-4.681,2.902C-5.304,3.352 -6.208,4.011 -7.393,4.884C-8.578,5.755 -9.553,6.472 -10.321,7.033C-10.45,7.129 -10.587,7.256 -10.729,7.416C-10.874,7.576 -11.003,7.713 -11.114,7.824L-11.546,7.369C-11.354,7.176 -11.222,7.025 -11.149,6.912C-11.079,6.8 -11.042,6.671 -11.042,6.528L-11.042,-4.275L-14.764,-4.275L-14.764,-4.924L-10.394,-4.924L-10.394,6.335Z" style="fill:rgb(35,25,22);fill-rule:nonzero;"/>
                    </g>
                    <g transform="matrix(4.16667,0,0,4.16667,2699.56,2706.43)">
                        <path d="M0,-13.516L0,-10.587L-0.648,-10.587L-0.648,-14.118L9.313,-14.118C8.931,-14.917 8.426,-15.87 7.801,-16.974L8.426,-17.261C8.97,-16.269 9.507,-15.222 10.034,-14.118L18.411,-14.118L18.411,-10.564L17.812,-10.564L17.812,-13.516L0,-13.516ZM9.218,3.145L19.422,3.145L19.422,3.745L-1.633,3.745L-1.633,3.145L8.569,3.145L8.569,-0.457L0.887,-0.457L0.887,-1.081L8.569,-1.081L8.569,-4.346L1.776,-3.962C0.783,-3.898 0.367,-3.874 0.527,-3.89L0.455,-4.442C0.775,-4.475 1.004,-4.51 1.139,-4.551C1.275,-4.59 1.398,-4.643 1.513,-4.707C2.36,-5.315 3.272,-6.034 4.249,-6.868C5.225,-7.698 6.113,-8.523 6.914,-9.339L0.959,-9.339L0.959,-9.939L17.235,-9.939L17.235,-9.339L7.824,-9.339C5.648,-7.162 3.815,-5.563 2.329,-4.539L15.051,-5.235C13.771,-6.434 12.756,-7.338 12.003,-7.949L12.436,-8.404C13.154,-7.795 14.063,-6.975 15.158,-5.942C16.255,-4.911 17.093,-4.097 17.669,-3.505L17.261,-3.074C17.005,-3.345 16.444,-3.898 15.581,-4.731L9.218,-4.371L9.218,-1.081L16.899,-1.081L16.899,-0.457L9.218,-0.457L9.218,3.145Z" style="fill:rgb(35,25,22);fill-rule:nonzero;"/>
                    </g>
                </g>
            </g>
        </g>
    </g>
</svg>
