<?xml version="1.0" encoding="UTF-8" standalone="no"?>
<!DOCTYPE svg PUBLIC "-//W3C//DTD SVG 1.1//EN" "http://www.w3.org/Graphics/SVG/1.1/DTD/svg11.dtd">
<svg width="100%" height="100%" viewBox="0 0 1515 902" version="1.1" xmlns="http://www.w3.org/2000/svg" xmlns:xlink="http://www.w3.org/1999/xlink" xml:space="preserve" xmlns:serif="http://www.serif.com/" style="fill-rule:evenodd;clip-rule:evenodd;stroke-linejoin:round;stroke-miterlimit:2;">
    <g transform="matrix(1,0,0,1,-4942.89,-1223.43)">
        <g transform="matrix(4.16667,0,0,4.16667,3946.36,0)">
            <g transform="matrix(1,0,0,1,560.202,310.869)">
                <path d="M0,135.588C14.09,135.588 25.512,124.166 25.512,110.076C25.512,95.986 14.09,84.564 0,84.564C-14.09,84.564 -25.512,95.986 -25.512,110.076C-25.512,124.166 -14.09,135.588 0,135.588M0,67.557C23.483,67.557 42.52,86.593 42.52,110.076L42.52,152.596L25.512,152.596L25.512,144.093C18.405,149.431 9.573,152.596 0,152.596C-23.483,152.596 -42.52,133.559 -42.52,110.076C-42.52,86.593 -23.483,67.557 0,67.557M-144.806,152.432L-144.806,119.951C-144.806,119.227 -144.218,118.639 -143.494,118.639C-143.15,118.639 -142.821,118.774 -142.576,119.014L-108.451,152.432L-84.079,152.432L-127.291,110.113L-84.847,68.546L-109.22,68.546L-142.576,101.211C-142.821,101.452 -143.15,101.586 -143.494,101.586C-144.218,101.586 -144.806,100.999 -144.806,100.274L-144.806,-17.245L-161.859,-17.245L-161.859,152.432L-144.806,152.432ZM-222.99,68.752C-235.035,68.752 -245.789,74.344 -252.828,83.056C-259.867,74.344 -270.622,68.752 -282.667,68.752C-291.015,68.752 -298.726,71.462 -305.03,76.006L-321.035,68.752L-321.035,152.833L-303.982,152.833L-303.982,107.117C-303.982,95.365 -294.421,85.805 -282.667,85.805C-270.915,85.805 -261.355,95.365 -261.355,107.117L-261.355,152.833L-244.302,152.833L-244.302,107.117C-244.302,95.365 -234.741,85.805 -222.99,85.805C-211.235,85.805 -201.675,95.365 -201.675,107.117L-201.675,152.833L-184.622,152.833L-184.622,107.117C-184.622,85.963 -201.833,68.752 -222.99,68.752M-57.057,118.815L-91.16,118.815L-91.16,101.762L-57.057,101.762L-57.057,118.815Z" style="fill:rgb(62,57,56);fill-rule:nonzero;"/>
            </g>
        </g>
        <g transform="matrix(4.16667,0,0,4.16667,3946.36,0)">
            <g transform="matrix(1,0,0,1,0,153.866)">
                <path d="M260.42,332.719L259.146,332.719L259.146,354.967L260.42,354.967L260.42,332.719ZM251.919,333.991L250.645,333.991L250.645,352.424L251.919,352.424L251.919,333.991ZM240.249,355.305L239.168,354.631C241.605,350.722 242.892,346.22 242.892,341.614L242.892,332.719L244.167,332.719L244.167,341.614C244.167,346.459 242.812,351.193 240.249,355.305" style="fill:rgb(35,25,22);fill-rule:nonzero;"/>
            </g>
        </g>
        <g transform="matrix(4.16667,0,0,4.16667,3946.36,0)">
            <g transform="matrix(1,0,0,1,288.595,492.307)">
                <path d="M0,9.759L-1.274,9.759L-1.274,13.272L-6.833,13.272L-6.833,7.748L-8.107,7.748L-8.107,13.272L-13.647,13.272L-13.647,9.759L-14.922,9.759L-14.922,14.547L0,14.547L0,9.759ZM-4.814,2.26L-4.098,1.207L-8.385,-1.711L-9.102,-0.657L-4.814,2.26ZM5.679,5.681L5.148,14.181C5.045,15.854 3.649,17.164 1.97,17.164L-1.274,17.164L-1.274,15.89L1.97,15.89C2.977,15.89 3.815,15.104 3.878,14.102L4.323,6.956L-13.124,6.956L-13.124,-4.078L-7.566,-4.078L-7.566,-7.405L-6.291,-7.405L-6.291,-4.078L2.367,-4.078L1.838,1.614C1.709,2.996 0.563,4.039 -0.826,4.039L-3.65,4.039L-3.65,2.765L-0.826,2.765C-0.098,2.765 0.502,2.22 0.569,1.496L0.97,-2.803L-11.85,-2.803L-11.85,5.681L5.679,5.681Z" style="fill:rgb(35,25,22);fill-rule:nonzero;"/>
            </g>
        </g>
        <g transform="matrix(4.16667,0,0,4.16667,3946.36,0)">
            <g transform="matrix(1,0,0,1,314.249,508.197)">
                <path d="M0,-19.816L1.969,-19.816L1.969,-21.09L-6.855,-21.09L-6.855,-19.816L-1.274,-19.816L-1.274,-12.34L-4.707,-12.34L-3.101,-17.341L-4.314,-17.731L-6.454,-11.065L-2.749,-11.065L-2.902,-10.556C-3.76,-7.681 -5.868,-4.276 -7.914,-2.457L-7.068,-1.506C-4.829,-3.495 -2.615,-7.066 -1.682,-10.19L-1.42,-11.065L-1.274,-11.065L-1.274,-0.635C-1.274,-0.285 -1.56,-0.001 -1.911,-0.001L-4.425,-0.001L-4.425,1.274L-1.911,1.274C-0.858,1.274 0,0.417 0,-0.635L0,-11.065L1.969,-11.065L1.969,-12.34L0,-12.34L0,-19.816Z" style="fill:rgb(35,25,22);fill-rule:nonzero;"/>
            </g>
        </g>
        <g transform="matrix(4.16667,0,0,4.16667,3946.36,0)">
            <g transform="matrix(1,0,0,1,0,151.137)">
                <path d="M324.317,344.72L319.857,344.72L319.857,340.161L324.317,340.161L324.317,344.72ZM324.317,349.245L319.857,349.245L319.857,345.995L324.317,345.995L324.317,349.245ZM324.317,355.713L319.857,355.713L319.857,350.519L324.317,350.519L324.317,355.713ZM329.565,340.162L329.565,338.887L324.669,338.887L324.669,333.765L323.395,333.765L323.395,338.887L319.38,338.887C319.918,337.761 320.418,336.615 320.848,335.443L321.016,334.982L319.819,334.545L319.651,335.005C319.166,336.329 318.601,337.624 317.974,338.887L317.95,338.887L317.95,338.937C317.244,340.354 316.456,341.731 315.581,343.05L316.643,343.754C317.346,342.694 317.984,341.592 318.582,340.47L318.582,356.988L329.565,356.988L329.565,355.713L325.591,355.713L325.591,350.519L328.291,350.519L328.291,349.245L325.591,349.245L325.591,345.995L328.291,345.995L328.291,344.72L325.591,344.72L325.591,340.162L329.565,340.162Z" style="fill:rgb(35,25,22);fill-rule:nonzero;"/>
            </g>
        </g>
        <g transform="matrix(4.16667,0,0,4.16667,3946.36,0)">
            <g transform="matrix(1,0,0,1,363.622,496.601)">
                <path d="M0,0.867L-11.034,0.867C-9.15,6.799 -3.661,10.508 -0.188,11.272L-0.462,12.517C-4.672,11.59 -9.776,7.578 -11.909,2.193C-13.239,6.653 -16.514,10.357 -20.992,12.187L-21.473,11.007C-17.042,9.197 -13.89,5.39 -12.878,0.867L-22.507,0.867L-22.507,-0.407L-12.658,-0.407C-12.576,-1.029 -12.527,-1.659 -12.527,-2.298L-12.527,-6.986L-16.807,-6.986C-17.707,-5.208 -18.982,-3.626 -20.557,-2.375L-21.349,-3.372C-19.097,-5.161 -17.512,-7.691 -16.888,-10.496L-16.631,-11.65L-15.388,-11.374L-15.645,-10.22C-15.794,-9.549 -16.002,-8.897 -16.247,-8.26L-3.147,-8.26L-3.147,-6.986L-11.253,-6.986L-11.253,-2.298C-11.253,-1.659 -11.287,-1.03 -11.319,-0.407L0,-0.407L0,0.867Z" style="fill:rgb(35,25,22);fill-rule:nonzero;"/>
            </g>
        </g>
        <g transform="matrix(4.16667,0,0,4.16667,3946.36,0)">
            <g transform="matrix(1,0,0,1,0,152.148)">
                <path d="M394.104,340.237L389.935,340.237L389.935,343.001L394.104,343.001L394.104,340.237ZM389.935,338.963L394.104,338.963L394.104,336.198L389.935,336.198L389.935,338.963ZM397.625,338.963L397.625,340.237L395.378,340.237L395.378,344.275L389.935,344.275L389.935,346.843L395.527,346.843L395.527,348.117L389.935,348.117L389.935,350.573L396.951,350.573L396.951,351.847L389.935,351.847L389.935,354.257L388.66,354.257L388.66,351.847L382.472,351.847L382.472,350.573L388.66,350.573L388.66,348.117L383.746,348.117L383.746,346.843L388.66,346.843L388.66,344.275L384.368,344.275L384.368,343.001L388.66,343.001L388.66,340.237L383.109,340.237L383.109,338.963L388.66,338.963L388.66,336.198L384.368,336.198L384.368,334.924L388.66,334.924L388.66,332.754L389.935,332.754L389.935,334.924L395.378,334.924L395.378,338.963L397.625,338.963ZM389.443,355.528L397.625,355.528L397.625,356.803L389.443,356.803C385.629,356.803 382.053,355.317 379.374,352.82C378.6,354.081 377.691,355.271 376.621,356.345L375.981,356.988L375.079,356.089L375.719,355.447C376.793,354.367 377.699,353.167 378.453,351.889C377.214,350.51 376.223,348.887 375.569,347.08L376.766,346.646C377.309,348.146 378.112,349.499 379.101,350.68C380.19,348.456 380.823,346.022 380.912,343.49L374.895,343.49L380.85,335.526L376.167,335.526L376.167,334.251L383.393,334.251L377.439,342.216L382.197,342.216C382.197,346.033 381.443,348.993 380.032,351.69C382.502,354.092 385.858,355.528 389.443,355.528" style="fill:rgb(35,25,22);fill-rule:nonzero;"/>
            </g>
        </g>
        <g transform="matrix(4.16667,0,0,4.16667,3946.36,0)">
            <g transform="matrix(1,0,0,1,420.935,501.085)">
                <path d="M0,-7.262C1.017,-8.796 1.913,-10.407 2.708,-12.066L3.696,-12.066L5.211,-8.368L6.389,-8.851L5.071,-12.066L10.165,-12.066L10.165,-13.34L3.307,-13.34C3.628,-14.075 3.929,-14.82 4.205,-15.573L3.01,-16.012C1.974,-13.184 0.604,-10.477 -1.062,-7.966L0,-7.262ZM-7.863,-12.066L-6.27,-12.066L-4.754,-8.368L-3.577,-8.851L-4.894,-12.066L-0.238,-12.066L-0.238,-13.34L-7.265,-13.34C-6.944,-14.075 -6.643,-14.819 -6.368,-15.573L-7.563,-16.012C-8.6,-13.182 -9.969,-10.475 -11.634,-7.966L-10.572,-7.262C-9.555,-8.795 -8.659,-10.406 -7.863,-12.066M0.566,-1.415L3.939,2.286L4.88,1.428L1.507,-2.273L0.566,-1.415ZM10.165,1.937L10.165,5.994C10.165,6.344 9.88,6.628 9.529,6.628L8.023,6.628C7.671,6.628 7.386,6.344 7.386,5.994L7.386,-6.497L-1.811,-6.497L-1.811,-1.447C-1.811,2.077 -3.319,5.448 -5.947,7.8L-5.098,8.75C-2.199,6.156 -0.536,2.439 -0.536,-1.447L-0.536,-5.222L6.111,-5.222L6.111,5.994C6.111,7.046 6.969,7.903 8.023,7.903L9.529,7.903C10.582,7.903 11.44,7.046 11.44,5.994L11.44,1.937L10.165,1.937ZM-3.431,2.73L-10.911,5.086L-11.294,3.871L-7.488,2.673L-7.488,-5.222L-10.049,-5.222L-10.049,-6.497L-3.655,-6.497L-3.655,-5.222L-6.214,-5.222L-6.214,2.272L-3.814,1.516L-3.431,2.73Z" style="fill:rgb(35,25,22);fill-rule:nonzero;"/>
            </g>
        </g>
        <g transform="matrix(4.16667,0,0,4.16667,3946.36,0)">
            <g transform="matrix(1,0,0,1,461.022,502.217)">
                <path d="M0,-7.482L-0.967,-6.653C1.095,-4.242 3.023,-1.677 4.764,0.975L4.773,0.989L5.827,0.272C4.058,-2.42 2.098,-5.03 0,-7.482M-1.05,-13.274L4.667,-13.274L4.667,-14.548L-7.674,-14.548L-7.674,-13.274L-2.357,-13.274C-3.408,-8.342 -6.207,-3.973 -10.26,-0.962L-9.5,0.061C-6.757,-1.977 -4.557,-4.603 -3.031,-7.593L-3.031,7.066L-1.756,7.066L-1.756,-7.738L-2.964,-7.738C-2.111,-9.44 -1.467,-11.253 -1.076,-13.148L-1.05,-13.274ZM-8.772,0.842L-8.44,2.072L-17.195,4.428L-17.526,3.198L-13.742,2.179L-13.742,-5.927L-16.436,-5.927L-16.436,-7.201L-13.742,-7.201L-13.742,-13.274L-16.998,-13.274L-16.998,-14.548L-9.772,-14.548L-9.772,-13.274L-12.468,-13.274L-12.468,-7.201L-9.772,-7.201L-9.772,-5.927L-12.468,-5.927L-12.468,1.836L-8.772,0.842Z" style="fill:rgb(35,25,22);fill-rule:nonzero;"/>
            </g>
        </g>
        <g transform="matrix(4.16667,0,0,4.16667,3946.36,0)">
            <g transform="matrix(1,0,0,1,0,152.996)">
                <path d="M487.733,348.969L496.577,348.969L496.577,346.806L487.733,346.806L487.733,348.969ZM487.733,345.531L496.577,345.531L496.577,343.368L487.733,343.368L487.733,345.531ZM500.807,351.839L500.807,354.718C500.807,355.77 499.95,356.627 498.896,356.627L495.485,356.627C494.432,356.627 493.574,355.77 493.574,354.718L493.574,350.244L491.078,350.244C490.941,353.358 488.685,356.03 485.604,356.66L484.003,356.988L483.749,355.74L485.349,355.412C487.838,354.903 489.653,352.754 489.79,350.244L486.459,350.244L486.459,342.094L497.851,342.094L497.851,350.244L494.849,350.244L494.849,354.718C494.849,355.068 495.134,355.353 495.485,355.353L498.896,355.353C499.247,355.353 499.533,355.068 499.533,354.718L499.533,351.839L500.807,351.839ZM500.17,339.23L494.856,339.23L496.189,336.657L495.058,336.071L493.421,339.23L490.841,339.23L489.204,336.071L488.074,336.657L489.407,339.23L484.775,339.23L484.775,340.504L500.17,340.504L500.17,339.23ZM499.155,334.41L492.995,334.41L492.995,331.906L491.721,331.906L491.721,334.41L485.561,334.41L485.561,335.685L499.155,335.685L499.155,334.41ZM484.997,350.716L478.454,353.165L478.008,351.972L480.758,350.942L480.735,350.942L480.735,342.751L478.231,342.751L478.231,341.476L480.735,341.476L480.735,332.974L482.009,332.974L482.009,341.476L484.512,341.476L484.512,342.751L482.009,342.751L482.009,350.474L484.552,349.522L484.997,350.716Z" style="fill:rgb(35,25,22);fill-rule:nonzero;"/>
            </g>
        </g>
        <g transform="matrix(4.16667,0,0,4.16667,3946.36,0)">
            <g transform="matrix(1,0,0,1,534.826,487.212)">
                <path d="M0,21.124C-2.556,20.333 -5.106,18.8 -7.284,16.852C-5.266,14.818 -3.582,12.447 -2.351,9.792L-1.833,8.673L-13.863,8.673L-13.863,9.948L-3.841,9.948C-4.975,12.201 -6.464,14.219 -8.212,15.976C-9.706,14.48 -10.976,12.79 -11.876,11.022L-13.012,11.599C-12.044,13.5 -10.709,15.293 -9.14,16.873C-11.129,18.664 -13.419,20.129 -15.948,21.173L-15.462,22.351C-12.766,21.237 -10.334,19.665 -8.221,17.747C-5.902,19.841 -3.17,21.476 -0.373,22.341L-0.275,22.371L0.096,21.153L0,21.124ZM-11.406,3.052L-11.406,0.438L-5.566,0.438L-5.566,4.007C-5.566,5.613 -4.259,6.919 -2.651,6.919L-0.472,6.919L-0.472,5.644L-2.651,5.644C-3.556,5.644 -4.292,4.911 -4.292,4.007L-4.292,-0.837L-12.044,-0.837L-12.681,-0.787L-12.681,3.052C-12.681,4.716 -13.652,6.252 -15.157,6.968L-14.609,8.118C-12.664,7.193 -11.406,5.204 -11.406,3.052M-13.576,16.644L-14.389,15.663L-18.088,18.725L-18.088,6.269L-22.746,6.269L-22.746,7.544L-19.363,7.544L-19.363,21.434L-13.576,16.644ZM-17.539,3.516L-20.884,-0.422L-19.913,-1.247L-16.568,2.691L-17.539,3.516Z" style="fill:rgb(35,25,22);fill-rule:nonzero;"/>
            </g>
        </g>
        <g transform="matrix(4.16667,0,0,4.16667,3946.36,0)">
            <g transform="matrix(1,0,0,1,568.607,499.237)">
                <path d="M0,-4.551L-6.609,-4.551L-6.609,-14.335L-7.883,-14.335L-7.883,-4.551L-14.492,-4.551L-14.492,-3.277L-7.883,-3.277L-7.883,9.784L-6.609,9.784L-6.609,-3.277L0,-3.277L0,-4.551ZM-17.325,6.747L-17.325,-5.709L-21.983,-5.709L-21.983,-4.434L-18.599,-4.434L-18.599,9.456L-12.812,4.666L-13.625,3.684L-17.325,6.747ZM-16.775,-8.462L-20.12,-12.401L-19.149,-13.226L-15.805,-9.287L-16.775,-8.462Z" style="fill:rgb(35,25,22);fill-rule:nonzero;"/>
            </g>
        </g>
        <g transform="matrix(4.16667,0,0,4.16667,3946.36,0)">
            <g transform="matrix(1,0,0,1,592.461,486.176)">
                <path d="M0,20.935L0,17.629L7.47,17.629L7.47,16.354L0,16.354L0,12.619L4.845,12.619C5.35,13.193 5.932,13.768 6.647,14.375L7.472,13.404C5.766,11.957 4.892,10.75 3.961,9.158L3.864,8.99L2.761,9.627L2.86,9.798C3.178,10.342 3.499,10.85 3.846,11.345L-5.636,11.345C-4.072,10.376 -2.695,9.123 -1.575,7.642L-1.425,7.441L7.059,7.441L7.059,6.167L-8.333,6.167L-8.333,7.441L-3.052,7.441C-4.529,9.194 -6.418,10.554 -8.564,11.388L-8.333,12.619L-1.274,12.619L-1.274,16.354L-8.743,16.354L-8.743,17.629L-1.274,17.629L-1.274,20.935L-11.535,20.935L-11.535,22.209L10.261,22.209L10.261,20.935L0,20.935ZM-9.718,6.279L-10.992,6.279L-10.992,2.104L-1.331,2.104L-1.331,-1.274L-0.056,-1.274L-0.056,2.104L9.606,2.104L9.606,6.279L8.332,6.279L8.332,3.379L-9.718,3.379L-9.718,6.279Z" style="fill:rgb(35,25,22);fill-rule:nonzero;"/>
            </g>
        </g>
    </g>
</svg>
