<?xml version="1.0" encoding="UTF-8" standalone="no"?>
<!DOCTYPE svg PUBLIC "-//W3C//DTD SVG 1.1//EN" "http://www.w3.org/Graphics/SVG/1.1/DTD/svg11.dtd">
<svg width="100%" height="100%" viewBox="0 0 2292 237" version="1.1" xmlns="http://www.w3.org/2000/svg" xmlns:xlink="http://www.w3.org/1999/xlink" xml:space="preserve" xmlns:serif="http://www.serif.com/" style="fill-rule:evenodd;clip-rule:evenodd;stroke-linejoin:round;stroke-miterlimit:2;">
    <g transform="matrix(1,0,0,1,-607.956,-1577.1)">
        <g transform="matrix(4.16667,0,0,4.16667,0,0)">
            <g transform="matrix(1,0,0,1,261.425,392.757)">
                <path d="M0,28.188C0,23.491 -3.807,19.684 -8.504,19.684C-13.201,19.684 -17.008,23.491 -17.008,28.188C-17.008,32.885 -13.201,36.692 -8.504,36.692C-3.807,36.692 0,32.885 0,28.188M5.669,28.188L5.669,42.361L0,42.361L0,39.527C-2.369,41.306 -5.313,42.361 -8.504,42.361C-16.332,42.361 -22.677,36.016 -22.677,28.188C-22.677,20.36 -16.332,14.015 -8.504,14.015C-0.676,14.015 5.669,20.36 5.669,28.188M-36.787,14.344L-44.911,14.344L-56.029,25.233C-56.111,25.313 -56.221,25.358 -56.335,25.358C-56.577,25.358 -56.773,25.162 -56.773,24.92L-56.773,-14.252L-62.457,-14.252L-62.457,42.306L-56.773,42.306L-56.773,31.48C-56.773,31.238 -56.577,31.042 -56.335,31.042C-56.221,31.042 -56.111,31.087 -56.029,31.167L-44.654,42.306L-36.531,42.306L-50.934,28.2L-36.787,14.344ZM-82.834,14.413C-86.849,14.413 -90.434,16.277 -92.78,19.181C-95.126,16.277 -98.711,14.413 -102.726,14.413C-105.509,14.413 -108.079,15.316 -110.181,16.831L-115.516,14.413L-115.516,42.44L-109.831,42.44L-109.831,27.201C-109.831,23.284 -106.645,20.097 -102.726,20.097C-98.809,20.097 -95.622,23.284 -95.622,27.201L-95.622,42.44L-89.938,42.44L-89.938,27.201C-89.938,23.284 -86.751,20.097 -82.834,20.097C-78.916,20.097 -75.729,23.284 -75.729,27.201L-75.729,42.44L-70.045,42.44L-70.045,27.201C-70.045,20.15 -75.782,14.413 -82.834,14.413M-38.891,25.417L-27.523,25.417L-27.523,31.102L-38.891,31.102L-38.891,25.417Z" style="fill:rgb(62,57,56);fill-rule:nonzero;"/>
            </g>
        </g>
        <g transform="matrix(4.16667,0,0,4.16667,0,0)">
            <g transform="matrix(1,0,0,1,0,1.566)">
                <path d="M315.077,407.597L313.659,407.597L313.659,432.352L315.077,432.352L315.077,407.597ZM305.618,409.012L304.2,409.012L304.2,429.522L305.618,429.522L305.618,409.012ZM292.634,432.727L291.431,431.977C294.143,427.628 295.575,422.619 295.575,417.494L295.575,407.597L296.993,407.597L296.993,417.494C296.993,422.884 295.485,428.152 292.634,432.727" style="fill:rgb(35,25,22);fill-rule:nonzero;"/>
            </g>
        </g>
        <g transform="matrix(4.16667,0,0,4.16667,0,0)">
            <g transform="matrix(1,0,0,1,346.427,415.529)">
                <path d="M0,10.859L-1.418,10.859L-1.418,14.768L-7.603,14.768L-7.603,8.622L-9.021,8.622L-9.021,14.768L-15.185,14.768L-15.185,10.859L-16.603,10.859L-16.603,16.186L0,16.186L0,10.859ZM-5.356,2.515L-4.56,1.343L-9.33,-1.903L-10.127,-0.731L-5.356,2.515ZM6.318,6.322L5.729,15.779C5.613,17.64 4.06,19.098 2.192,19.098L-1.418,19.098L-1.418,17.68L2.192,17.68C3.313,17.68 4.245,16.806 4.314,15.691L4.811,7.74L-14.603,7.74L-14.603,-4.537L-8.418,-4.537L-8.418,-8.239L-7,-8.239L-7,-4.537L2.634,-4.537L2.045,1.796C1.901,3.335 0.627,4.495 -0.919,4.495L-4.062,4.495L-4.062,3.077L-0.919,3.077C-0.109,3.077 0.559,2.47 0.633,1.666L1.079,-3.119L-13.185,-3.119L-13.185,6.322L6.318,6.322Z" style="fill:rgb(35,25,22);fill-rule:nonzero;"/>
            </g>
        </g>
        <g transform="matrix(4.16667,0,0,4.16667,0,0)">
            <g transform="matrix(1,0,0,1,374.971,433.209)">
                <path d="M0,-22.048L2.19,-22.048L2.19,-23.466L-7.627,-23.466L-7.627,-22.048L-1.418,-22.048L-1.418,-13.73L-5.237,-13.73L-3.45,-19.294L-4.8,-19.728L-7.181,-12.312L-3.059,-12.312L-3.229,-11.744C-4.184,-8.546 -6.529,-4.757 -8.806,-2.734L-7.864,-1.675C-5.373,-3.888 -2.909,-7.861 -1.871,-11.338L-1.58,-12.312L-1.418,-12.312L-1.418,-0.706C-1.418,-0.317 -1.735,0 -2.126,0L-4.924,0L-4.924,1.418L-2.126,1.418C-0.954,1.418 0,0.465 0,-0.706L0,-12.312L2.19,-12.312L2.19,-13.73L0,-13.73L0,-22.048Z" style="fill:rgb(35,25,22);fill-rule:nonzero;"/>
            </g>
        </g>
        <g transform="matrix(4.16667,0,0,4.16667,0,0)">
            <g transform="matrix(1,0,0,1,0,-1.471)">
                <path d="M386.173,420.951L381.21,420.951L381.21,415.879L386.173,415.879L386.173,420.951ZM386.173,425.985L381.21,425.985L381.21,422.369L386.173,422.369L386.173,425.985ZM386.173,433.182L381.21,433.182L381.21,427.403L386.173,427.403L386.173,433.182ZM392.012,415.878L392.012,414.46L386.565,414.46L386.565,408.761L385.147,408.761L385.147,414.46L380.68,414.46C381.279,413.207 381.835,411.933 382.313,410.628L382.5,410.116L381.168,409.629L380.982,410.141C380.441,411.615 379.813,413.055 379.115,414.46L379.089,414.46L379.089,414.515C378.303,416.092 377.426,417.624 376.452,419.092L377.634,419.876C378.416,418.696 379.126,417.47 379.792,416.221L379.792,434.6L392.012,434.6L392.012,433.182L387.591,433.182L387.591,427.403L390.595,427.403L390.595,425.985L387.591,425.985L387.591,422.369L390.595,422.369L390.595,420.951L387.591,420.951L387.591,415.878L392.012,415.878Z" style="fill:rgb(35,25,22);fill-rule:nonzero;"/>
            </g>
        </g>
        <g transform="matrix(4.16667,0,0,4.16667,0,0)">
            <g transform="matrix(1,0,0,1,429.906,420.307)">
                <path d="M0,0.965L-12.278,0.965C-10.181,7.566 -4.073,11.692 -0.209,12.542L-0.514,13.927C-5.198,12.896 -10.877,8.432 -13.251,2.44C-14.73,7.403 -18.374,11.525 -23.357,13.56L-23.893,12.247C-18.961,10.233 -15.455,5.997 -14.329,0.965L-25.042,0.965L-25.042,-0.453L-14.084,-0.453C-13.993,-1.144 -13.938,-1.845 -13.938,-2.556L-13.938,-7.772L-18.701,-7.772C-19.701,-5.794 -21.12,-4.034 -22.873,-2.642L-23.754,-3.752C-21.248,-5.742 -19.485,-8.557 -18.79,-11.679L-18.505,-12.962L-17.122,-12.655L-17.407,-11.371C-17.573,-10.625 -17.805,-9.899 -18.078,-9.19L-3.501,-9.19L-3.501,-7.772L-12.521,-7.772L-12.521,-2.556C-12.521,-1.846 -12.559,-1.145 -12.594,-0.453L0,-0.453L0,0.965Z" style="fill:rgb(35,25,22);fill-rule:nonzero;"/>
            </g>
        </g>
        <g transform="matrix(4.16667,0,0,4.16667,0,0)">
            <g transform="matrix(1,0,0,1,0,-0.346)">
                <path d="M463.821,415.962L459.182,415.962L459.182,419.037L463.821,419.037L463.821,415.962ZM459.183,414.544L463.822,414.544L463.822,411.468L459.183,411.468L459.183,414.544ZM467.739,414.544L467.739,415.962L465.239,415.962L465.239,420.456L459.183,420.456L459.183,423.312L465.405,423.312L465.405,424.73L459.183,424.73L459.183,427.462L466.989,427.462L466.989,428.88L459.183,428.88L459.183,431.562L457.765,431.562L457.765,428.88L450.88,428.88L450.88,427.462L457.765,427.462L457.765,424.73L452.297,424.73L452.297,423.312L457.765,423.312L457.765,420.456L452.989,420.456L452.989,419.038L457.765,419.038L457.765,415.962L451.588,415.962L451.588,414.544L457.765,414.544L457.765,411.468L452.989,411.468L452.989,410.05L457.765,410.05L457.765,407.636L459.183,407.636L459.183,410.05L465.239,410.05L465.239,414.544L467.739,414.544ZM458.636,432.976L467.739,432.976L467.739,434.394L458.636,434.394C454.393,434.394 450.414,432.741 447.433,429.963C446.571,431.366 445.56,432.689 444.369,433.885L443.657,434.6L442.653,433.6L443.365,432.885C444.561,431.684 445.568,430.349 446.408,428.926C445.029,427.392 443.927,425.587 443.198,423.576L444.53,423.093C445.135,424.762 446.028,426.268 447.129,427.582C448.341,425.107 449.045,422.399 449.144,419.582L442.449,419.582L449.074,410.72L443.864,410.72L443.864,409.302L451.904,409.302L445.279,418.164L450.573,418.164C450.573,422.411 449.734,425.704 448.165,428.706C450.913,431.378 454.647,432.976 458.636,432.976" style="fill:rgb(35,25,22);fill-rule:nonzero;"/>
            </g>
        </g>
        <g transform="matrix(4.16667,0,0,4.16667,0,0)">
            <g transform="matrix(1,0,0,1,493.676,425.296)">
                <path d="M0,-8.08C1.132,-9.787 2.128,-11.579 3.013,-13.425L4.112,-13.425L5.798,-9.31L7.108,-9.848L5.643,-13.425L11.311,-13.425L11.311,-14.843L3.679,-14.843C4.037,-15.661 4.372,-16.489 4.679,-17.327L3.349,-17.815C2.196,-14.669 0.672,-11.657 -1.182,-8.863L0,-8.08ZM-8.749,-13.425L-6.976,-13.425L-5.29,-9.31L-3.979,-9.848L-5.445,-13.425L-0.265,-13.425L-0.265,-14.843L-8.083,-14.843C-7.726,-15.661 -7.392,-16.489 -7.085,-17.327L-8.415,-17.815C-9.568,-14.667 -11.092,-11.655 -12.944,-8.863L-11.763,-8.08C-10.631,-9.786 -9.634,-11.578 -8.749,-13.425M0.63,-1.574L4.383,2.544L5.43,1.589L1.677,-2.529L0.63,-1.574ZM11.311,2.155L11.311,6.669C11.311,7.059 10.993,7.375 10.603,7.375L8.927,7.375C8.535,7.375 8.218,7.059 8.218,6.669L8.218,-7.228L-2.015,-7.228L-2.015,-1.61C-2.015,2.312 -3.692,6.062 -6.617,8.679L-5.672,9.735C-2.446,6.85 -0.597,2.714 -0.597,-1.61L-0.597,-5.81L6.8,-5.81L6.8,6.669C6.8,7.84 7.754,8.793 8.927,8.793L10.603,8.793C11.774,8.793 12.729,7.84 12.729,6.669L12.729,2.155L11.311,2.155ZM-3.817,3.038L-12.141,5.659L-12.566,4.308L-8.332,2.974L-8.332,-5.81L-11.181,-5.81L-11.181,-7.228L-4.066,-7.228L-4.066,-5.81L-6.914,-5.81L-6.914,2.528L-4.243,1.687L-3.817,3.038Z" style="fill:rgb(35,25,22);fill-rule:nonzero;"/>
            </g>
        </g>
        <g transform="matrix(4.16667,0,0,4.16667,0,0)">
            <g transform="matrix(1,0,0,1,538.278,426.556)">
                <path d="M0,-8.325L-1.076,-7.403C1.219,-4.721 3.363,-1.866 5.301,1.085L5.311,1.1L6.483,0.303C4.516,-2.693 2.334,-5.596 0,-8.325M-1.168,-14.769L5.192,-14.769L5.192,-16.187L-8.538,-16.187L-8.538,-14.769L-2.623,-14.769C-3.792,-9.282 -6.906,-4.421 -11.416,-1.07L-10.57,0.068C-7.518,-2.2 -5.071,-5.122 -3.372,-8.449L-3.372,7.862L-1.954,7.862L-1.954,-8.61L-3.298,-8.61C-2.349,-10.503 -1.632,-12.521 -1.197,-14.63L-1.168,-14.769ZM-9.76,0.937L-9.391,2.306L-19.132,4.927L-19.501,3.558L-15.29,2.425L-15.29,-6.595L-18.288,-6.595L-18.288,-8.013L-15.29,-8.013L-15.29,-14.769L-18.913,-14.769L-18.913,-16.187L-10.873,-16.187L-10.873,-14.769L-13.872,-14.769L-13.872,-8.013L-10.873,-8.013L-10.873,-6.595L-13.872,-6.595L-13.872,2.043L-9.76,0.937Z" style="fill:rgb(35,25,22);fill-rule:nonzero;"/>
            </g>
        </g>
        <g transform="matrix(4.16667,0,0,4.16667,0,0)">
            <g transform="matrix(1,0,0,1,0,0.597)">
                <path d="M567.999,425.679L577.839,425.679L577.839,423.272L567.999,423.272L567.999,425.679ZM567.999,421.853L577.839,421.853L577.839,419.447L567.999,419.447L567.999,421.853ZM582.546,428.872L582.546,432.075C582.546,433.246 581.592,434.199 580.419,434.199L576.624,434.199C575.452,434.199 574.498,433.246 574.498,432.075L574.498,427.097L571.721,427.097C571.568,430.562 569.058,433.535 565.63,434.236L563.849,434.6L563.565,433.212L565.347,432.848C568.116,432.281 570.136,429.889 570.288,427.097L566.581,427.097L566.581,418.029L579.257,418.029L579.257,427.097L575.916,427.097L575.916,432.075C575.916,432.465 576.233,432.781 576.624,432.781L580.419,432.781C580.81,432.781 581.128,432.465 581.128,432.075L581.128,428.872L582.546,428.872ZM581.837,414.842L575.924,414.842L577.407,411.979L576.149,411.327L574.328,414.842L571.457,414.842L569.636,411.327L568.378,411.979L569.861,414.842L564.707,414.842L564.707,416.26L581.837,416.26L581.837,414.842ZM580.707,409.479L573.854,409.479L573.854,406.693L572.436,406.693L572.436,409.479L565.582,409.479L565.582,410.897L580.707,410.897L580.707,409.479ZM564.955,427.622L557.675,430.348L557.179,429.019L560.239,427.874L560.212,427.874L560.212,418.76L557.427,418.76L557.427,417.342L560.212,417.342L560.212,407.882L561.63,407.882L561.63,417.342L564.415,417.342L564.415,418.76L561.63,418.76L561.63,427.353L564.459,426.294L564.955,427.622Z" style="fill:rgb(35,25,22);fill-rule:nonzero;"/>
            </g>
        </g>
        <g transform="matrix(4.16667,0,0,4.16667,0,0)">
            <g transform="matrix(1,0,0,1,620.397,409.861)">
                <path d="M0,23.504C-2.844,22.624 -5.681,20.919 -8.105,18.751C-5.859,16.488 -3.986,13.85 -2.616,10.896L-2.039,9.65L-15.425,9.65L-15.425,11.068L-4.273,11.068C-5.535,13.575 -7.192,15.821 -9.137,17.776C-10.799,16.112 -12.213,14.231 -13.214,12.264L-14.478,12.906C-13.401,15.021 -11.916,17.016 -10.17,18.774C-12.383,20.767 -14.931,22.397 -17.745,23.559L-17.204,24.869C-14.204,23.63 -11.498,21.88 -9.147,19.746C-6.567,22.077 -3.528,23.896 -0.415,24.858L-0.306,24.892L0.106,23.536L0,23.504ZM-12.691,3.397L-12.691,0.487L-6.193,0.487L-6.193,4.459C-6.193,6.245 -4.738,7.698 -2.95,7.698L-0.525,7.698L-0.525,6.28L-2.95,6.28C-3.957,6.28 -4.775,5.464 -4.775,4.459L-4.775,-0.931L-13.4,-0.931L-14.109,-0.875L-14.109,3.397C-14.109,5.247 -15.19,6.956 -16.864,7.753L-16.255,9.032C-14.091,8.003 -12.691,5.79 -12.691,3.397M-15.105,18.52L-16.01,17.428L-20.126,20.835L-20.126,6.976L-25.309,6.976L-25.309,8.394L-21.544,8.394L-21.544,23.849L-15.105,18.52ZM-19.515,3.912L-23.236,-0.47L-22.156,-1.388L-18.435,2.994L-19.515,3.912Z" style="fill:rgb(35,25,22);fill-rule:nonzero;"/>
            </g>
        </g>
        <g transform="matrix(4.16667,0,0,4.16667,0,0)">
            <g transform="matrix(1,0,0,1,657.984,423.24)">
                <path d="M0,-5.064L-7.354,-5.064L-7.354,-15.95L-8.771,-15.95L-8.771,-5.064L-16.125,-5.064L-16.125,-3.646L-8.771,-3.646L-8.771,10.886L-7.354,10.886L-7.354,-3.646L0,-3.646L0,-5.064ZM-19.276,7.507L-19.276,-6.352L-24.459,-6.352L-24.459,-4.934L-20.694,-4.934L-20.694,10.521L-14.256,5.191L-15.16,4.099L-19.276,7.507ZM-18.665,-9.416L-22.387,-13.798L-21.307,-14.716L-17.585,-10.334L-18.665,-9.416Z" style="fill:rgb(35,25,22);fill-rule:nonzero;"/>
            </g>
        </g>
        <g transform="matrix(4.16667,0,0,4.16667,0,0)">
            <g transform="matrix(1,0,0,1,684.525,408.708)">
                <path d="M0,23.293L0,19.614L8.312,19.614L8.312,18.196L0,18.196L0,14.04L5.391,14.04C5.952,14.679 6.6,15.319 7.396,15.994L8.313,14.914C6.415,13.304 5.443,11.961 4.407,10.189L4.299,10.002L3.072,10.711L3.183,10.901C3.536,11.507 3.893,12.072 4.28,12.622L-6.271,12.622C-4.531,11.544 -2.998,10.15 -1.753,8.502L-1.585,8.279L7.854,8.279L7.854,6.861L-9.271,6.861L-9.271,8.279L-3.396,8.279C-5.039,10.229 -7.141,11.742 -9.528,12.671L-9.271,14.04L-1.418,14.04L-1.418,18.196L-9.729,18.196L-9.729,19.614L-1.418,19.614L-1.418,23.293L-12.834,23.293L-12.834,24.711L11.417,24.711L11.417,23.293L0,23.293ZM-10.813,6.986L-12.23,6.986L-12.23,2.341L-1.48,2.341L-1.48,-1.418L-0.062,-1.418L-0.062,2.341L10.688,2.341L10.688,6.986L9.271,6.986L9.271,3.759L-10.813,3.759L-10.813,6.986Z" style="fill:rgb(35,25,22);fill-rule:nonzero;"/>
            </g>
        </g>
    </g>
</svg>
